<svg width="89" height="50" viewBox="0 0 89 50" fill="none" xmlns="http://www.w3.org/2000/svg">
<g filter="url(#filter0_d_1_815)">
<path d="M17.1462 13.1028H17.1433C14.7453 13.1028 12.8013 14.8304 12.8013 16.9615V16.964C12.8013 19.0951 14.7453 20.8227 17.1433 20.8227H17.1462C19.5442 20.8227 21.4882 19.0951 21.4882 16.964V16.9615C21.4882 14.8304 19.5442 13.1028 17.1462 13.1028Z" fill="#2196F3"/>
<path d="M49.195 11.8693C49.1882 8.90929 47.8623 6.07223 45.5074 3.97895C43.1525 1.88568 39.9604 0.706672 36.6297 0.699951V0.699951C33.298 0.705328 30.1045 1.88374 27.7484 3.97716C25.3922 6.07058 24.0655 8.90841 24.0587 11.8693V28.1921C24.0587 28.1921 49.1922 25.7044 49.195 11.8718V11.8693Z" fill="#2196F3"/>
<path d="M4 33.5495C4.00604 35.6091 4.92915 37.5828 6.56761 39.0394C8.20607 40.496 10.4267 41.317 12.7442 41.3231C15.0612 41.317 17.2814 40.4963 18.9197 39.0403C20.5581 37.5843 21.4816 35.6112 21.4884 33.552V22.1943C21.4884 22.1943 4 23.9266 4 33.5495ZM12.7442 35.5844C12.2913 35.5844 11.8486 35.4651 11.472 35.2415C11.0955 35.0179 10.802 34.7001 10.6287 34.3282C10.4554 33.9564 10.41 33.5472 10.4984 33.1525C10.5867 32.7577 10.8048 32.3951 11.125 32.1105C11.4453 31.8259 11.8533 31.6321 12.2975 31.5536C12.7416 31.4751 13.202 31.5154 13.6205 31.6694C14.0389 31.8234 14.3965 32.0843 14.6481 32.4189C14.8997 32.7535 15.034 33.147 15.034 33.5495C15.0351 33.8173 14.9767 34.0828 14.8622 34.3306C14.7476 34.5783 14.5791 34.8036 14.3664 34.9933C14.1536 35.1831 13.9008 35.3337 13.6224 35.4364C13.3441 35.5392 13.0456 35.5921 12.7442 35.5921V35.5844Z" fill="#2196F3"/>
<path d="M30.4177 34.4637H28.7302V36.2069H27.8513V31.9413H30.6286V32.6532H28.7302V33.7548H30.4177V34.4637ZM34.6423 34.1708C34.6423 34.5907 34.5681 34.9589 34.4196 35.2753C34.2712 35.5917 34.0583 35.8358 33.7809 36.0077C33.5056 36.1796 33.1891 36.2655 32.8317 36.2655C32.4782 36.2655 32.1628 36.1805 31.8854 36.0106C31.6081 35.8407 31.3932 35.5985 31.2409 35.2841C31.0886 34.9677 31.0114 34.6044 31.0095 34.1942V33.9833C31.0095 33.5634 31.0847 33.1942 31.235 32.8759C31.3874 32.5555 31.6013 32.3104 31.8766 32.1405C32.154 31.9686 32.4704 31.8827 32.8259 31.8827C33.1813 31.8827 33.4968 31.9686 33.7722 32.1405C34.0495 32.3104 34.2634 32.5555 34.4138 32.8759C34.5661 33.1942 34.6423 33.5624 34.6423 33.9803V34.1708ZM33.7516 33.9774C33.7516 33.5302 33.6716 33.1903 33.5114 32.9579C33.3513 32.7255 33.1227 32.6093 32.8259 32.6093C32.5309 32.6093 32.3034 32.7245 32.1432 32.955C31.9831 33.1835 31.902 33.5194 31.9001 33.9628V34.1708C31.9001 34.6063 31.9802 34.9442 32.1403 35.1844C32.3005 35.4247 32.5309 35.5448 32.8317 35.5448C33.1266 35.5448 33.3532 35.4296 33.5114 35.1991C33.6696 34.9667 33.7497 34.6288 33.7516 34.1854V33.9774ZM37.4929 35.0878C37.4929 34.9218 37.4343 34.7948 37.3171 34.7069C37.1999 34.6171 36.989 34.5233 36.6843 34.4257C36.3796 34.326 36.1384 34.2284 35.9606 34.1327C35.4763 33.871 35.2341 33.5184 35.2341 33.0751C35.2341 32.8446 35.2985 32.6395 35.4274 32.4598C35.5583 32.2782 35.7448 32.1366 35.987 32.035C36.2311 31.9335 36.5046 31.8827 36.8073 31.8827C37.112 31.8827 37.3835 31.9384 37.6218 32.0497C37.86 32.1591 38.0446 32.3143 38.1755 32.5155C38.3083 32.7167 38.3747 32.9452 38.3747 33.201H37.4958C37.4958 33.0057 37.4343 32.8544 37.3112 32.7469C37.1882 32.6376 37.0153 32.5829 36.7927 32.5829C36.5778 32.5829 36.4108 32.6288 36.2917 32.7206C36.1725 32.8104 36.113 32.9296 36.113 33.078C36.113 33.2167 36.1823 33.3329 36.321 33.4266C36.4616 33.5204 36.6677 33.6083 36.9391 33.6903C37.4391 33.8407 37.8034 34.0272 38.0319 34.2499C38.2604 34.4725 38.3747 34.7499 38.3747 35.0819C38.3747 35.451 38.235 35.7411 37.9557 35.952C37.6765 36.161 37.3005 36.2655 36.8278 36.2655C36.4997 36.2655 36.2009 36.2059 35.9313 36.0868C35.6618 35.9657 35.4557 35.8007 35.3132 35.5917C35.1725 35.3827 35.1022 35.1405 35.1022 34.8651H35.9841C35.9841 35.3358 36.2653 35.5712 36.8278 35.5712C37.0368 35.5712 37.1999 35.5292 37.3171 35.4452C37.4343 35.3593 37.4929 35.2401 37.4929 35.0878ZM42.1833 32.6532H40.8766V36.2069H39.9977V32.6532H38.7087V31.9413H42.1833V32.6532ZM45.2536 34.3583H43.5661V35.5009H45.5466V36.2069H42.6872V31.9413H45.5407V32.6532H43.5661V33.6698H45.2536V34.3583ZM47.6413 34.6454H46.9411V36.2069H46.0622V31.9413H47.6472C48.1511 31.9413 48.5397 32.0536 48.8132 32.2782C49.0866 32.5028 49.2233 32.8202 49.2233 33.2303C49.2233 33.5214 49.1599 33.7645 49.0329 33.9598C48.9079 34.1532 48.7175 34.3075 48.4616 34.4227L49.3845 36.1659V36.2069H48.4411L47.6413 34.6454ZM46.9411 33.9335H47.6501C47.8708 33.9335 48.0417 33.8778 48.1628 33.7665C48.2839 33.6532 48.3444 33.4979 48.3444 33.3007C48.3444 33.0995 48.2868 32.9413 48.1716 32.826C48.0583 32.7108 47.8835 32.6532 47.6472 32.6532H46.9411V33.9335ZM52.2673 34.704V36.2069H51.3884V31.9413H53.0524C53.3727 31.9413 53.654 31.9999 53.8962 32.1171C54.1403 32.2343 54.3278 32.4012 54.4587 32.618C54.5895 32.8329 54.655 33.078 54.655 33.3534C54.655 33.7714 54.5114 34.1014 54.2243 34.3436C53.9391 34.5839 53.5436 34.704 53.0378 34.704H52.2673ZM52.2673 33.9921H53.0524C53.2849 33.9921 53.4616 33.9374 53.5827 33.828C53.7057 33.7186 53.7673 33.5624 53.7673 33.3593C53.7673 33.1503 53.7057 32.9813 53.5827 32.8524C53.4597 32.7235 53.2897 32.6571 53.0729 32.6532H52.2673V33.9921ZM57.8278 34.3583H56.1403V35.5009H58.1208V36.2069H55.2614V31.9413H58.1149V32.6532H56.1403V33.6698H57.8278V34.3583ZM61.9059 32.6532H60.5993V36.2069H59.7204V32.6532H58.4313V31.9413H61.9059V32.6532ZM64.9763 34.3583H63.2888V35.5009H65.2692V36.2069H62.4099V31.9413H65.2634V32.6532H63.2888V33.6698H64.9763V34.3583ZM67.364 34.6454H66.6638V36.2069H65.7849V31.9413H67.3698C67.8737 31.9413 68.2624 32.0536 68.5358 32.2782C68.8093 32.5028 68.946 32.8202 68.946 33.2303C68.946 33.5214 68.8825 33.7645 68.7556 33.9598C68.6306 34.1532 68.4401 34.3075 68.1843 34.4227L69.1071 36.1659V36.2069H68.1638L67.364 34.6454ZM66.6638 33.9335H67.3727C67.5934 33.9335 67.7643 33.8778 67.8854 33.7665C68.0065 33.6532 68.0671 33.4979 68.0671 33.3007C68.0671 33.0995 68.0095 32.9413 67.8942 32.826C67.7809 32.7108 67.6061 32.6532 67.3698 32.6532H66.6638V33.9335ZM71.8288 35.0878C71.8288 34.9218 71.7702 34.7948 71.653 34.7069C71.5358 34.6171 71.3249 34.5233 71.0202 34.4257C70.7155 34.326 70.4743 34.2284 70.2966 34.1327C69.8122 33.871 69.57 33.5184 69.57 33.0751C69.57 32.8446 69.6345 32.6395 69.7634 32.4598C69.8942 32.2782 70.0807 32.1366 70.3229 32.035C70.5671 31.9335 70.8405 31.8827 71.1432 31.8827C71.4479 31.8827 71.7194 31.9384 71.9577 32.0497C72.196 32.1591 72.3806 32.3143 72.5114 32.5155C72.6442 32.7167 72.7106 32.9452 72.7106 33.201H71.8317C71.8317 33.0057 71.7702 32.8544 71.6472 32.7469C71.5241 32.6376 71.3513 32.5829 71.1286 32.5829C70.9138 32.5829 70.7468 32.6288 70.6276 32.7206C70.5085 32.8104 70.4489 32.9296 70.4489 33.078C70.4489 33.2167 70.5182 33.3329 70.6569 33.4266C70.7975 33.5204 71.0036 33.6083 71.2751 33.6903C71.7751 33.8407 72.1393 34.0272 72.3679 34.2499C72.5964 34.4725 72.7106 34.7499 72.7106 35.0819C72.7106 35.451 72.571 35.7411 72.2917 35.952C72.0124 36.161 71.6364 36.2655 71.1638 36.2655C70.8356 36.2655 70.5368 36.2059 70.2673 36.0868C69.9977 35.9657 69.7917 35.8007 69.6491 35.5917C69.5085 35.3827 69.4382 35.1405 69.4382 34.8651H70.32C70.32 35.3358 70.6013 35.5712 71.1638 35.5712C71.3727 35.5712 71.5358 35.5292 71.653 35.4452C71.7702 35.3593 71.8288 35.2401 71.8288 35.0878Z" fill="#2196F3"/>
</g>
<defs>
<filter id="filter0_d_1_815" x="0" y="0.699951" width="76.7106" height="48.623" filterUnits="userSpaceOnUse" color-interpolation-filters="sRGB">
<feFlood flood-opacity="0" result="BackgroundImageFix"/>
<feColorMatrix in="SourceAlpha" type="matrix" values="0 0 0 0 0 0 0 0 0 0 0 0 0 0 0 0 0 0 127 0" result="hardAlpha"/>
<feOffset dy="4"/>
<feGaussianBlur stdDeviation="2"/>
<feComposite in2="hardAlpha" operator="out"/>
<feColorMatrix type="matrix" values="0 0 0 0 0 0 0 0 0 0 0 0 0 0 0 0 0 0 0.25 0"/>
<feBlend mode="normal" in2="BackgroundImageFix" result="effect1_dropShadow_1_815"/>
<feBlend mode="normal" in="SourceGraphic" in2="effect1_dropShadow_1_815" result="shape"/>
</filter>
</defs>
</svg>
